<svg width="100%" height="100%" viewBox="0 0 1200 1200" fill="none" xmlns="http://www.w3.org/2000/svg">
<rect x="100" y="300" width="800" height="800" fill="#282C34"/>
<path fill-rule="evenodd" clip-rule="evenodd" d="M300 0C244.772 0 200 44.7715 200 100V900C200 955.228 244.772 1000 300 1000H1100C1155.23 1000 1200 955.228 1200 900V100C1200 44.7715 1155.23 0 1100 0H300ZM320 100C308.954 100 300 108.954 300 120V880C300 891.046 308.954 900 320 900H1080C1091.05 900 1100 891.046 1100 880V120C1100 108.954 1091.05 100 1080 100H320Z" fill="#96C077"/>
<path fill-rule="evenodd" clip-rule="evenodd" d="M100 200C44.7715 200 0 244.772 0 300V1100C0 1155.23 44.7715 1200 100 1200H900C955.228 1200 1000 1155.23 1000 1100V300C1000 244.772 955.228 200 900 200H100ZM120 300C108.954 300 100 308.954 100 320V1080C100 1091.05 108.954 1100 120 1100H880C891.046 1100 900 1091.05 900 1080V320C900 308.954 891.046 300 880 300H120Z" fill="#96C077"/>
<rect x="300" y="100" width="800" height="800" rx="20" fill="#282C34"/>
<path d="M325.4 347.471C325.4 336.077 328.044 326.94 333.33 320.059C338.617 313.132 345.703 309.668 354.59 309.668C362.428 309.668 368.763 312.402 373.594 317.871V280H390.205V385H375.166L374.346 377.344C369.378 383.359 362.747 386.367 354.453 386.367C345.794 386.367 338.776 382.881 333.398 375.908C328.066 368.936 325.4 359.456 325.4 347.471ZM342.012 348.906C342.012 356.426 343.447 362.305 346.318 366.543C349.235 370.736 353.359 372.832 358.691 372.832C365.482 372.832 370.449 369.801 373.594 363.74V332.158C370.54 326.234 365.618 323.271 358.828 323.271C353.451 323.271 349.303 325.413 346.387 329.697C343.47 333.936 342.012 340.339 342.012 348.906ZM451.729 385C450.999 383.587 450.361 381.286 449.814 378.096C444.528 383.61 438.057 386.367 430.4 386.367C422.972 386.367 416.911 384.248 412.217 380.01C407.523 375.771 405.176 370.531 405.176 364.287C405.176 356.403 408.092 350.365 413.926 346.172C419.805 341.934 428.19 339.814 439.082 339.814H449.268V334.961C449.268 331.133 448.197 328.079 446.055 325.801C443.913 323.477 440.654 322.314 436.279 322.314C432.497 322.314 429.398 323.271 426.982 325.186C424.567 327.054 423.359 329.447 423.359 332.363H406.748C406.748 328.307 408.092 324.525 410.781 321.016C413.47 317.461 417.116 314.681 421.719 312.676C426.367 310.671 431.54 309.668 437.236 309.668C445.895 309.668 452.799 311.855 457.949 316.23C463.099 320.56 465.742 326.667 465.879 334.551V367.91C465.879 374.564 466.813 379.873 468.682 383.838V385H451.729ZM433.477 373.037C436.758 373.037 439.834 372.24 442.705 370.645C445.622 369.049 447.809 366.908 449.268 364.219V350.273H440.312C434.16 350.273 429.535 351.344 426.436 353.486C423.337 355.628 421.787 358.659 421.787 362.578C421.787 365.768 422.835 368.32 424.932 370.234C427.074 372.103 429.922 373.037 433.477 373.037ZM504.092 293.057V311.035H517.148V323.34H504.092V364.629C504.092 367.454 504.639 369.505 505.732 370.781C506.872 372.012 508.877 372.627 511.748 372.627C513.662 372.627 515.599 372.399 517.559 371.943V384.795C513.776 385.843 510.13 386.367 506.621 386.367C493.861 386.367 487.48 379.326 487.48 365.244V323.34H475.312V311.035H487.48V293.057H504.092ZM574.092 385C573.363 383.587 572.725 381.286 572.178 378.096C566.891 383.61 560.42 386.367 552.764 386.367C545.335 386.367 539.274 384.248 534.58 380.01C529.886 375.771 527.539 370.531 527.539 364.287C527.539 356.403 530.456 350.365 536.289 346.172C542.168 341.934 550.553 339.814 561.445 339.814H571.631V334.961C571.631 331.133 570.56 328.079 568.418 325.801C566.276 323.477 563.018 322.314 558.643 322.314C554.86 322.314 551.761 323.271 549.346 325.186C546.93 327.054 545.723 329.447 545.723 332.363H529.111C529.111 328.307 530.456 324.525 533.145 321.016C535.833 317.461 539.479 314.681 544.082 312.676C548.73 310.671 553.903 309.668 559.6 309.668C568.258 309.668 575.163 311.855 580.312 316.23C585.462 320.56 588.105 326.667 588.242 334.551V367.91C588.242 374.564 589.176 379.873 591.045 383.838V385H574.092ZM555.84 373.037C559.121 373.037 562.197 372.24 565.068 370.645C567.985 369.049 570.173 366.908 571.631 364.219V350.273H562.676C556.523 350.273 551.898 351.344 548.799 353.486C545.7 355.628 544.15 358.659 544.15 362.578C544.15 365.768 545.199 368.32 547.295 370.234C549.437 372.103 552.285 373.037 555.84 373.037ZM615.654 367.5C618.753 367.5 621.146 368.389 622.832 370.166C624.518 371.898 625.361 374.085 625.361 376.729C625.361 379.326 624.518 381.491 622.832 383.223C621.146 384.909 618.753 385.752 615.654 385.752C612.692 385.752 610.345 384.909 608.613 383.223C606.882 381.536 606.016 379.372 606.016 376.729C606.016 374.085 606.859 371.898 608.545 370.166C610.231 368.389 612.601 367.5 615.654 367.5ZM615.654 309.463C618.753 309.463 621.146 310.352 622.832 312.129C624.518 313.861 625.361 316.048 625.361 318.691C625.361 321.289 624.518 323.454 622.832 325.186C621.146 326.872 618.753 327.715 615.654 327.715C612.692 327.715 610.345 326.872 608.613 325.186C606.882 323.499 606.016 321.335 606.016 318.691C606.016 316.048 606.859 313.861 608.545 312.129C610.231 310.352 612.601 309.463 615.654 309.463ZM660.498 385H643.887V311.035H660.498V385ZM642.861 291.826C642.861 289.274 643.659 287.155 645.254 285.469C646.895 283.783 649.219 282.939 652.227 282.939C655.234 282.939 657.559 283.783 659.199 285.469C660.84 287.155 661.66 289.274 661.66 291.826C661.66 294.333 660.84 296.429 659.199 298.115C657.559 299.756 655.234 300.576 652.227 300.576C649.219 300.576 646.895 299.756 645.254 298.115C643.659 296.429 642.861 294.333 642.861 291.826ZM694.268 311.035L694.746 318.76C699.941 312.699 707.051 309.668 716.074 309.668C725.964 309.668 732.731 313.451 736.377 321.016C741.755 313.451 749.32 309.668 759.072 309.668C767.23 309.668 773.291 311.924 777.256 316.436C781.266 320.947 783.317 327.601 783.408 336.396V385H766.797V336.875C766.797 332.181 765.771 328.74 763.721 326.553C761.67 324.365 758.275 323.271 753.535 323.271C749.753 323.271 746.654 324.297 744.238 326.348C741.868 328.353 740.205 330.996 739.248 334.277L739.316 385H722.705V336.328C722.477 327.624 718.034 323.271 709.375 323.271C702.721 323.271 698.005 325.983 695.225 331.406V385H678.613V311.035H694.268ZM844.658 385C843.929 383.587 843.291 381.286 842.744 378.096C837.458 383.61 830.986 386.367 823.33 386.367C815.902 386.367 809.84 384.248 805.146 380.01C800.452 375.771 798.105 370.531 798.105 364.287C798.105 356.403 801.022 350.365 806.855 346.172C812.734 341.934 821.12 339.814 832.012 339.814H842.197V334.961C842.197 331.133 841.126 328.079 838.984 325.801C836.842 323.477 833.584 322.314 829.209 322.314C825.426 322.314 822.327 323.271 819.912 325.186C817.497 327.054 816.289 329.447 816.289 332.363H799.678C799.678 328.307 801.022 324.525 803.711 321.016C806.4 317.461 810.046 314.681 814.648 312.676C819.297 310.671 824.469 309.668 830.166 309.668C838.825 309.668 845.729 311.855 850.879 316.23C856.029 320.56 858.672 326.667 858.809 334.551V367.91C858.809 374.564 859.743 379.873 861.611 383.838V385H844.658ZM826.406 373.037C829.688 373.037 832.764 372.24 835.635 370.645C838.551 369.049 840.739 366.908 842.197 364.219V350.273H833.242C827.09 350.273 822.464 351.344 819.365 353.486C816.266 355.628 814.717 358.659 814.717 362.578C814.717 365.768 815.765 368.32 817.861 370.234C820.003 372.103 822.852 373.037 826.406 373.037ZM873.301 347.471C873.301 335.986 875.99 326.826 881.367 319.99C886.79 313.109 893.968 309.668 902.9 309.668C911.331 309.668 917.962 312.607 922.793 318.486L923.545 311.035H938.516V382.744C938.516 392.451 935.485 400.107 929.424 405.713C923.408 411.318 915.273 414.121 905.02 414.121C899.596 414.121 894.287 412.982 889.092 410.703C883.942 408.47 880.023 405.531 877.334 401.885L885.195 391.904C890.299 397.965 896.589 400.996 904.062 400.996C909.577 400.996 913.929 399.492 917.119 396.484C920.309 393.522 921.904 389.147 921.904 383.359V378.369C917.119 383.701 910.739 386.367 902.764 386.367C894.105 386.367 887.018 382.926 881.504 376.045C876.035 369.163 873.301 359.639 873.301 347.471ZM889.844 348.906C889.844 356.335 891.348 362.191 894.355 366.475C897.409 370.713 901.624 372.832 907.002 372.832C913.701 372.832 918.669 369.961 921.904 364.219V331.68C918.76 326.074 913.838 323.271 907.139 323.271C901.67 323.271 897.409 325.436 894.355 329.766C891.348 334.095 889.844 340.475 889.844 348.906ZM988.213 386.367C977.686 386.367 969.141 383.063 962.578 376.455C956.061 369.801 952.803 360.96 952.803 349.932V347.881C952.803 340.498 954.215 333.913 957.041 328.125C959.912 322.292 963.923 317.757 969.072 314.521C974.222 311.286 979.964 309.668 986.299 309.668C996.37 309.668 1004.14 312.881 1009.61 319.307C1015.12 325.732 1017.88 334.824 1017.88 346.582V353.281H969.551C970.052 359.388 972.08 364.219 975.635 367.773C979.235 371.328 983.747 373.105 989.17 373.105C996.781 373.105 1002.98 370.029 1007.76 363.877L1016.72 372.422C1013.76 376.842 1009.79 380.283 1004.82 382.744C999.902 385.16 994.365 386.367 988.213 386.367ZM986.23 322.998C981.673 322.998 977.982 324.593 975.156 327.783C972.376 330.973 970.599 335.417 969.824 341.113H1001.47V339.883C1001.11 334.323 999.629 330.13 997.031 327.305C994.434 324.434 990.833 322.998 986.23 322.998ZM1035.52 393.545H1022.46L1061.63 285.469H1074.69L1035.52 393.545ZM393.281 512.77C393.281 524.208 390.684 533.346 385.488 540.182C380.293 546.972 373.32 550.367 364.57 550.367C356.458 550.367 349.964 547.701 345.088 542.369V577.438H328.477V475.035H343.789L344.473 482.555C349.349 476.63 355.98 473.668 364.365 473.668C373.389 473.668 380.452 477.04 385.557 483.785C390.706 490.484 393.281 499.804 393.281 511.744V512.77ZM376.738 511.334C376.738 503.951 375.257 498.095 372.295 493.766C369.378 489.436 365.186 487.271 359.717 487.271C352.926 487.271 348.05 490.074 345.088 495.68V528.492C348.096 534.234 353.018 537.105 359.854 537.105C365.14 537.105 369.264 534.986 372.227 530.748C375.234 526.464 376.738 519.993 376.738 511.334ZM422.812 475.035L423.291 483.58C428.76 476.972 435.938 473.668 444.824 473.668C460.228 473.668 468.066 482.486 468.34 500.123V549H451.729V501.08C451.729 496.386 450.703 492.923 448.652 490.689C446.647 488.411 443.343 487.271 438.74 487.271C432.041 487.271 427.051 490.302 423.77 496.363V549H407.158V475.035H422.812ZM482.422 511.471C482.422 499.986 485.111 490.826 490.488 483.99C495.911 477.109 503.089 473.668 512.021 473.668C520.452 473.668 527.083 476.607 531.914 482.486L532.666 475.035H547.637V546.744C547.637 556.451 544.606 564.107 538.545 569.713C532.529 575.318 524.395 578.121 514.141 578.121C508.717 578.121 503.408 576.982 498.213 574.703C493.063 572.47 489.144 569.531 486.455 565.885L494.316 555.904C499.421 561.965 505.71 564.996 513.184 564.996C518.698 564.996 523.05 563.492 526.24 560.484C529.43 557.522 531.025 553.147 531.025 547.359V542.369C526.24 547.701 519.86 550.367 511.885 550.367C503.226 550.367 496.139 546.926 490.625 540.045C485.156 533.163 482.422 523.639 482.422 511.471ZM498.965 512.906C498.965 520.335 500.469 526.191 503.477 530.475C506.53 534.713 510.745 536.832 516.123 536.832C522.822 536.832 527.79 533.961 531.025 528.219V495.68C527.881 490.074 522.959 487.271 516.26 487.271C510.791 487.271 506.53 489.436 503.477 493.766C500.469 498.095 498.965 504.475 498.965 512.906ZM573.34 473.463C576.439 473.463 578.831 474.352 580.518 476.129C582.204 477.861 583.047 480.048 583.047 482.691C583.047 485.289 582.204 487.454 580.518 489.186C578.831 490.872 576.439 491.715 573.34 491.715C570.378 491.715 568.031 490.872 566.299 489.186C564.567 487.499 563.701 485.335 563.701 482.691C563.701 480.048 564.544 477.861 566.23 476.129C567.917 474.352 570.286 473.463 573.34 473.463ZM568.35 571.422L559.395 566.09C562.038 561.943 563.838 558.32 564.795 555.221C565.798 552.167 566.322 549.046 566.367 545.855V532.936H581.338L581.27 544.898C581.224 549.729 579.993 554.56 577.578 559.391C575.208 564.267 572.132 568.277 568.35 571.422ZM663.027 512.77C663.027 524.254 660.452 533.391 655.303 540.182C650.199 546.972 643.158 550.367 634.18 550.367C625.521 550.367 618.776 547.245 613.945 541.002L613.125 549H598.086V444H614.697V482.145C619.482 476.493 625.931 473.668 634.043 473.668C643.066 473.668 650.153 477.018 655.303 483.717C660.452 490.416 663.027 499.781 663.027 511.812V512.77ZM646.416 511.334C646.416 503.313 645.003 497.298 642.178 493.287C639.352 489.277 635.251 487.271 629.873 487.271C622.673 487.271 617.614 490.416 614.697 496.705V527.193C617.66 533.619 622.764 536.832 630.01 536.832C635.205 536.832 639.215 534.895 642.041 531.021C644.867 527.148 646.325 521.292 646.416 513.453V511.334ZM721.201 549C720.472 547.587 719.834 545.286 719.287 542.096C714.001 547.61 707.529 550.367 699.873 550.367C692.445 550.367 686.383 548.248 681.689 544.01C676.995 539.771 674.648 534.531 674.648 528.287C674.648 520.403 677.565 514.365 683.398 510.172C689.277 505.934 697.663 503.814 708.555 503.814H718.74V498.961C718.74 495.133 717.669 492.079 715.527 489.801C713.385 487.477 710.127 486.314 705.752 486.314C701.969 486.314 698.87 487.271 696.455 489.186C694.04 491.054 692.832 493.447 692.832 496.363H676.221C676.221 492.307 677.565 488.525 680.254 485.016C682.943 481.461 686.589 478.681 691.191 476.676C695.84 474.671 701.012 473.668 706.709 473.668C715.368 473.668 722.272 475.855 727.422 480.23C732.572 484.56 735.215 490.667 735.352 498.551V531.91C735.352 538.564 736.286 543.873 738.154 547.838V549H721.201ZM702.949 537.037C706.23 537.037 709.307 536.24 712.178 534.645C715.094 533.049 717.282 530.908 718.74 528.219V514.273H709.785C703.633 514.273 699.007 515.344 695.908 517.486C692.809 519.628 691.26 522.659 691.26 526.578C691.26 529.768 692.308 532.32 694.404 534.234C696.546 536.103 699.395 537.037 702.949 537.037ZM794.209 528.902C794.209 525.94 792.979 523.684 790.518 522.135C788.102 520.585 784.069 519.218 778.418 518.033C772.767 516.848 768.05 515.344 764.268 513.521C755.973 509.511 751.826 503.701 751.826 496.09C751.826 489.71 754.515 484.378 759.893 480.094C765.27 475.81 772.106 473.668 780.4 473.668C789.242 473.668 796.374 475.855 801.797 480.23C807.266 484.605 810 490.279 810 497.252H793.389C793.389 494.062 792.204 491.419 789.834 489.322C787.464 487.18 784.32 486.109 780.4 486.109C776.755 486.109 773.77 486.952 771.445 488.639C769.167 490.325 768.027 492.581 768.027 495.406C768.027 497.958 769.098 499.941 771.24 501.354C773.382 502.766 777.712 504.202 784.229 505.66C790.745 507.073 795.85 508.782 799.541 510.787C803.278 512.747 806.035 515.117 807.812 517.896C809.635 520.676 810.547 524.049 810.547 528.014C810.547 534.667 807.79 540.068 802.275 544.215C796.761 548.316 789.538 550.367 780.605 550.367C774.544 550.367 769.144 549.273 764.404 547.086C759.665 544.898 755.973 541.891 753.33 538.062C750.687 534.234 749.365 530.11 749.365 525.689H765.498C765.726 529.609 767.207 532.639 769.941 534.781C772.676 536.878 776.299 537.926 780.811 537.926C785.186 537.926 788.512 537.105 790.791 535.465C793.07 533.779 794.209 531.591 794.209 528.902ZM857.646 550.367C847.119 550.367 838.574 547.063 832.012 540.455C825.495 533.801 822.236 524.96 822.236 513.932V511.881C822.236 504.498 823.649 497.913 826.475 492.125C829.346 486.292 833.356 481.757 838.506 478.521C843.656 475.286 849.398 473.668 855.732 473.668C865.804 473.668 873.574 476.881 879.043 483.307C884.557 489.732 887.314 498.824 887.314 510.582V517.281H838.984C839.486 523.388 841.514 528.219 845.068 531.773C848.669 535.328 853.18 537.105 858.604 537.105C866.214 537.105 872.412 534.029 877.197 527.877L886.152 536.422C883.19 540.842 879.225 544.283 874.258 546.744C869.336 549.16 863.799 550.367 857.646 550.367ZM855.664 486.998C851.107 486.998 847.415 488.593 844.59 491.783C841.81 494.973 840.033 499.417 839.258 505.113H870.908V503.883C870.544 498.323 869.062 494.13 866.465 491.305C863.867 488.434 860.267 486.998 855.664 486.998ZM950.889 448.99V462.73H948.838C939.541 462.867 932.113 465.419 926.553 470.387C920.993 475.354 917.689 482.395 916.641 491.51C921.973 485.904 928.786 483.102 937.08 483.102C945.876 483.102 952.803 486.201 957.861 492.398C962.965 498.596 965.518 506.594 965.518 516.393C965.518 526.51 962.533 534.713 956.562 541.002C950.638 547.245 942.845 550.367 933.184 550.367C923.249 550.367 915.182 546.699 908.984 539.361C902.832 532.024 899.756 522.408 899.756 510.514V504.84C899.756 487.385 903.994 473.714 912.471 463.824C920.993 453.935 933.229 448.99 949.18 448.99H950.889ZM933.047 496.5C929.401 496.5 926.051 497.525 922.998 499.576C919.99 501.627 917.78 504.361 916.367 507.779V512.838C916.367 520.221 917.917 526.1 921.016 530.475C924.115 534.804 928.125 536.969 933.047 536.969C937.969 536.969 941.865 535.123 944.736 531.432C947.607 527.74 949.043 522.887 949.043 516.871C949.043 510.855 947.585 505.956 944.668 502.174C941.751 498.391 937.878 496.5 933.047 496.5ZM1034.97 513.521H1047.34V526.852H1034.97V549H1018.36V526.852H975.361L974.883 516.734L1017.81 449.469H1034.97V513.521ZM992.314 513.521H1018.36V471.959L1017.13 474.146L992.314 513.521ZM338.867 695.5C341.966 695.5 344.359 696.389 346.045 698.166C347.731 699.898 348.574 702.085 348.574 704.729C348.574 707.326 347.731 709.491 346.045 711.223C344.359 712.909 341.966 713.752 338.867 713.752C335.905 713.752 333.558 712.909 331.826 711.223C330.094 709.536 329.229 707.372 329.229 704.729C329.229 702.085 330.072 699.898 331.758 698.166C333.444 696.389 335.814 695.5 338.867 695.5ZM377.969 695.5C381.068 695.5 383.46 696.389 385.146 698.166C386.833 699.898 387.676 702.085 387.676 704.729C387.676 707.326 386.833 709.491 385.146 711.223C383.46 712.909 381.068 713.752 377.969 713.752C375.007 713.752 372.66 712.909 370.928 711.223C369.196 709.536 368.33 707.372 368.33 704.729C368.33 702.085 369.173 699.898 370.859 698.166C372.546 696.389 374.915 695.5 377.969 695.5ZM417.07 695.5C420.169 695.5 422.562 696.389 424.248 698.166C425.934 699.898 426.777 702.085 426.777 704.729C426.777 707.326 425.934 709.491 424.248 711.223C422.562 712.909 420.169 713.752 417.07 713.752C414.108 713.752 411.761 712.909 410.029 711.223C408.298 709.536 407.432 707.372 407.432 704.729C407.432 702.085 408.275 699.898 409.961 698.166C411.647 696.389 414.017 695.5 417.07 695.5Z" fill="#61AFEF"/>
</svg>
